<mxfile host="app.diagrams.net" modified="2024-05-16T13:54:34.340Z" agent="Mozilla/5.0 (Macintosh; Intel Mac OS X 10_15_7) AppleWebKit/537.36 (KHTML, like Gecko) Chrome/124.0.0.0 Safari/537.36" etag="7xpE0ITH5Zk6AjlrlhgE" version="24.4.2" type="device">
  <diagram name="Page-1" id="pciO_6SO6fFfWaN_w0Vh">
    <mxGraphModel dx="1434" dy="702" grid="0" gridSize="10" guides="1" tooltips="1" connect="1" arrows="1" fold="1" page="1" pageScale="1" pageWidth="850" pageHeight="1100" math="0" shadow="0">
      <root>
        <mxCell id="0" />
        <mxCell id="1" parent="0" />
        <mxCell id="COTgaeyNtAmfPq0ewy4g-7" style="edgeStyle=orthogonalEdgeStyle;rounded=0;orthogonalLoop=1;jettySize=auto;html=1;exitX=0.5;exitY=1;exitDx=0;exitDy=0;" edge="1" parent="1" source="COTgaeyNtAmfPq0ewy4g-3" target="COTgaeyNtAmfPq0ewy4g-5">
          <mxGeometry relative="1" as="geometry" />
        </mxCell>
        <mxCell id="COTgaeyNtAmfPq0ewy4g-3" value="View" style="rounded=1;whiteSpace=wrap;html=1;hachureGap=4;fontFamily=Architects Daughter;fontSource=https%3A%2F%2Ffonts.googleapis.com%2Fcss%3Ffamily%3DArchitects%2BDaughter;" vertex="1" parent="1">
          <mxGeometry x="44" y="167" width="120" height="60" as="geometry" />
        </mxCell>
        <mxCell id="COTgaeyNtAmfPq0ewy4g-5" value="ViewModel" style="rounded=1;whiteSpace=wrap;html=1;hachureGap=4;fontFamily=Architects Daughter;fontSource=https%3A%2F%2Ffonts.googleapis.com%2Fcss%3Ffamily%3DArchitects%2BDaughter;" vertex="1" parent="1">
          <mxGeometry x="44" y="277" width="120" height="60" as="geometry" />
        </mxCell>
        <mxCell id="COTgaeyNtAmfPq0ewy4g-12" style="edgeStyle=orthogonalEdgeStyle;rounded=0;orthogonalLoop=1;jettySize=auto;html=1;exitX=1;exitY=0.5;exitDx=0;exitDy=0;entryX=0;entryY=0.5;entryDx=0;entryDy=0;" edge="1" parent="1" source="COTgaeyNtAmfPq0ewy4g-6" target="COTgaeyNtAmfPq0ewy4g-11">
          <mxGeometry relative="1" as="geometry">
            <Array as="points">
              <mxPoint x="383" y="307" />
              <mxPoint x="383" y="257" />
            </Array>
          </mxGeometry>
        </mxCell>
        <mxCell id="COTgaeyNtAmfPq0ewy4g-21" style="edgeStyle=orthogonalEdgeStyle;rounded=0;orthogonalLoop=1;jettySize=auto;html=1;exitX=0;exitY=0.5;exitDx=0;exitDy=0;entryX=1;entryY=0.5;entryDx=0;entryDy=0;dashed=1;" edge="1" parent="1" source="COTgaeyNtAmfPq0ewy4g-6" target="COTgaeyNtAmfPq0ewy4g-5">
          <mxGeometry relative="1" as="geometry" />
        </mxCell>
        <mxCell id="COTgaeyNtAmfPq0ewy4g-6" value="ViewModelImpl" style="rounded=1;whiteSpace=wrap;html=1;hachureGap=4;fontFamily=Architects Daughter;fontSource=https%3A%2F%2Ffonts.googleapis.com%2Fcss%3Ffamily%3DArchitects%2BDaughter;" vertex="1" parent="1">
          <mxGeometry x="216" y="277" width="120" height="60" as="geometry" />
        </mxCell>
        <mxCell id="COTgaeyNtAmfPq0ewy4g-9" value="" style="endArrow=none;html=1;rounded=0;" edge="1" parent="1">
          <mxGeometry width="50" height="50" relative="1" as="geometry">
            <mxPoint x="367" y="604" as="sourcePoint" />
            <mxPoint x="365" y="74" as="targetPoint" />
          </mxGeometry>
        </mxCell>
        <mxCell id="COTgaeyNtAmfPq0ewy4g-10" value="&lt;font style=&quot;font-size: 14px;&quot;&gt;&lt;b&gt;Domain Layer&lt;/b&gt;&lt;/font&gt;" style="text;html=1;align=center;verticalAlign=middle;whiteSpace=wrap;rounded=0;" vertex="1" parent="1">
          <mxGeometry x="438" y="76" width="60" height="30" as="geometry" />
        </mxCell>
        <mxCell id="COTgaeyNtAmfPq0ewy4g-16" style="edgeStyle=orthogonalEdgeStyle;rounded=0;orthogonalLoop=1;jettySize=auto;html=1;exitX=1;exitY=0.5;exitDx=0;exitDy=0;entryX=0;entryY=0.5;entryDx=0;entryDy=0;" edge="1" parent="1" source="COTgaeyNtAmfPq0ewy4g-11" target="COTgaeyNtAmfPq0ewy4g-13">
          <mxGeometry relative="1" as="geometry" />
        </mxCell>
        <mxCell id="COTgaeyNtAmfPq0ewy4g-17" style="edgeStyle=orthogonalEdgeStyle;rounded=0;orthogonalLoop=1;jettySize=auto;html=1;exitX=1;exitY=0.5;exitDx=0;exitDy=0;entryX=0;entryY=0.5;entryDx=0;entryDy=0;" edge="1" parent="1" source="COTgaeyNtAmfPq0ewy4g-11" target="COTgaeyNtAmfPq0ewy4g-14">
          <mxGeometry relative="1" as="geometry" />
        </mxCell>
        <mxCell id="COTgaeyNtAmfPq0ewy4g-18" style="edgeStyle=orthogonalEdgeStyle;rounded=0;orthogonalLoop=1;jettySize=auto;html=1;exitX=1;exitY=0.5;exitDx=0;exitDy=0;entryX=0;entryY=0.5;entryDx=0;entryDy=0;" edge="1" parent="1" source="COTgaeyNtAmfPq0ewy4g-11" target="COTgaeyNtAmfPq0ewy4g-15">
          <mxGeometry relative="1" as="geometry">
            <Array as="points">
              <mxPoint x="593" y="257" />
              <mxPoint x="593" y="336" />
            </Array>
          </mxGeometry>
        </mxCell>
        <mxCell id="COTgaeyNtAmfPq0ewy4g-11" value="UseCase" style="rounded=1;whiteSpace=wrap;html=1;hachureGap=4;fontFamily=Architects Daughter;fontSource=https%3A%2F%2Ffonts.googleapis.com%2Fcss%3Ffamily%3DArchitects%2BDaughter;" vertex="1" parent="1">
          <mxGeometry x="435" y="227" width="120" height="60" as="geometry" />
        </mxCell>
        <mxCell id="COTgaeyNtAmfPq0ewy4g-13" value="Model" style="rounded=1;whiteSpace=wrap;html=1;hachureGap=4;fontFamily=Architects Daughter;fontSource=https%3A%2F%2Ffonts.googleapis.com%2Fcss%3Ffamily%3DArchitects%2BDaughter;" vertex="1" parent="1">
          <mxGeometry x="633" y="158" width="109" height="43" as="geometry" />
        </mxCell>
        <mxCell id="COTgaeyNtAmfPq0ewy4g-14" value="Model" style="rounded=1;whiteSpace=wrap;html=1;hachureGap=4;fontFamily=Architects Daughter;fontSource=https%3A%2F%2Ffonts.googleapis.com%2Fcss%3Ffamily%3DArchitects%2BDaughter;" vertex="1" parent="1">
          <mxGeometry x="636" y="236" width="109" height="43" as="geometry" />
        </mxCell>
        <mxCell id="COTgaeyNtAmfPq0ewy4g-15" value="Model" style="rounded=1;whiteSpace=wrap;html=1;hachureGap=4;fontFamily=Architects Daughter;fontSource=https%3A%2F%2Ffonts.googleapis.com%2Fcss%3Ffamily%3DArchitects%2BDaughter;" vertex="1" parent="1">
          <mxGeometry x="636" y="314" width="109" height="43" as="geometry" />
        </mxCell>
        <mxCell id="COTgaeyNtAmfPq0ewy4g-20" style="edgeStyle=orthogonalEdgeStyle;rounded=0;orthogonalLoop=1;jettySize=auto;html=1;exitX=0.5;exitY=0;exitDx=0;exitDy=0;entryX=0.5;entryY=1;entryDx=0;entryDy=0;dashed=1;" edge="1" parent="1" source="COTgaeyNtAmfPq0ewy4g-19" target="COTgaeyNtAmfPq0ewy4g-11">
          <mxGeometry relative="1" as="geometry" />
        </mxCell>
        <mxCell id="COTgaeyNtAmfPq0ewy4g-23" style="edgeStyle=orthogonalEdgeStyle;rounded=0;orthogonalLoop=1;jettySize=auto;html=1;exitX=1;exitY=0.5;exitDx=0;exitDy=0;entryX=1;entryY=0.5;entryDx=0;entryDy=0;" edge="1" parent="1" source="COTgaeyNtAmfPq0ewy4g-19" target="COTgaeyNtAmfPq0ewy4g-13">
          <mxGeometry relative="1" as="geometry">
            <Array as="points">
              <mxPoint x="781" y="407" />
              <mxPoint x="781" y="180" />
            </Array>
          </mxGeometry>
        </mxCell>
        <mxCell id="COTgaeyNtAmfPq0ewy4g-24" style="edgeStyle=orthogonalEdgeStyle;rounded=0;orthogonalLoop=1;jettySize=auto;html=1;exitX=1;exitY=0.5;exitDx=0;exitDy=0;entryX=1;entryY=0.5;entryDx=0;entryDy=0;" edge="1" parent="1">
          <mxGeometry relative="1" as="geometry">
            <mxPoint x="554" y="407" as="sourcePoint" />
            <mxPoint x="744" y="257.5" as="targetPoint" />
            <Array as="points">
              <mxPoint x="781" y="407" />
              <mxPoint x="781" y="258" />
            </Array>
          </mxGeometry>
        </mxCell>
        <mxCell id="COTgaeyNtAmfPq0ewy4g-25" style="edgeStyle=orthogonalEdgeStyle;rounded=0;orthogonalLoop=1;jettySize=auto;html=1;exitX=1;exitY=0.5;exitDx=0;exitDy=0;entryX=1;entryY=0.5;entryDx=0;entryDy=0;" edge="1" parent="1" source="COTgaeyNtAmfPq0ewy4g-19" target="COTgaeyNtAmfPq0ewy4g-15">
          <mxGeometry relative="1" as="geometry">
            <Array as="points">
              <mxPoint x="780" y="407" />
              <mxPoint x="780" y="336" />
            </Array>
          </mxGeometry>
        </mxCell>
        <mxCell id="COTgaeyNtAmfPq0ewy4g-27" style="edgeStyle=orthogonalEdgeStyle;rounded=0;orthogonalLoop=1;jettySize=auto;html=1;exitX=0.5;exitY=1;exitDx=0;exitDy=0;entryX=0;entryY=0.5;entryDx=0;entryDy=0;" edge="1" parent="1" source="COTgaeyNtAmfPq0ewy4g-19" target="COTgaeyNtAmfPq0ewy4g-26">
          <mxGeometry relative="1" as="geometry" />
        </mxCell>
        <mxCell id="COTgaeyNtAmfPq0ewy4g-35" style="edgeStyle=orthogonalEdgeStyle;rounded=0;orthogonalLoop=1;jettySize=auto;html=1;exitX=0.5;exitY=1;exitDx=0;exitDy=0;" edge="1" parent="1" source="COTgaeyNtAmfPq0ewy4g-19" target="COTgaeyNtAmfPq0ewy4g-34">
          <mxGeometry relative="1" as="geometry" />
        </mxCell>
        <mxCell id="COTgaeyNtAmfPq0ewy4g-19" value="UseCaseImpl" style="rounded=1;whiteSpace=wrap;html=1;hachureGap=4;fontFamily=Architects Daughter;fontSource=https%3A%2F%2Ffonts.googleapis.com%2Fcss%3Ffamily%3DArchitects%2BDaughter;" vertex="1" parent="1">
          <mxGeometry x="435" y="377" width="120" height="60" as="geometry" />
        </mxCell>
        <mxCell id="COTgaeyNtAmfPq0ewy4g-26" value="Repository" style="rounded=1;whiteSpace=wrap;html=1;hachureGap=4;fontFamily=Architects Daughter;fontSource=https%3A%2F%2Ffonts.googleapis.com%2Fcss%3Ffamily%3DArchitects%2BDaughter;" vertex="1" parent="1">
          <mxGeometry x="667" y="466" width="120" height="60" as="geometry" />
        </mxCell>
        <mxCell id="COTgaeyNtAmfPq0ewy4g-33" style="edgeStyle=orthogonalEdgeStyle;rounded=0;orthogonalLoop=1;jettySize=auto;html=1;exitX=0;exitY=0.5;exitDx=0;exitDy=0;entryX=1;entryY=0.5;entryDx=0;entryDy=0;dashed=1;" edge="1" parent="1" source="COTgaeyNtAmfPq0ewy4g-28" target="COTgaeyNtAmfPq0ewy4g-26">
          <mxGeometry relative="1" as="geometry" />
        </mxCell>
        <mxCell id="COTgaeyNtAmfPq0ewy4g-39" style="edgeStyle=orthogonalEdgeStyle;rounded=0;orthogonalLoop=1;jettySize=auto;html=1;exitX=0.5;exitY=1;exitDx=0;exitDy=0;" edge="1" parent="1" source="COTgaeyNtAmfPq0ewy4g-28" target="COTgaeyNtAmfPq0ewy4g-36">
          <mxGeometry relative="1" as="geometry" />
        </mxCell>
        <mxCell id="COTgaeyNtAmfPq0ewy4g-40" style="edgeStyle=orthogonalEdgeStyle;rounded=0;orthogonalLoop=1;jettySize=auto;html=1;exitX=0.5;exitY=1;exitDx=0;exitDy=0;entryX=0.5;entryY=0;entryDx=0;entryDy=0;" edge="1" parent="1" source="COTgaeyNtAmfPq0ewy4g-28" target="COTgaeyNtAmfPq0ewy4g-37">
          <mxGeometry relative="1" as="geometry" />
        </mxCell>
        <mxCell id="COTgaeyNtAmfPq0ewy4g-44" style="edgeStyle=orthogonalEdgeStyle;rounded=0;orthogonalLoop=1;jettySize=auto;html=1;exitX=1;exitY=0.5;exitDx=0;exitDy=0;entryX=0;entryY=0.75;entryDx=0;entryDy=0;" edge="1" parent="1" source="COTgaeyNtAmfPq0ewy4g-28" target="COTgaeyNtAmfPq0ewy4g-41">
          <mxGeometry relative="1" as="geometry" />
        </mxCell>
        <mxCell id="COTgaeyNtAmfPq0ewy4g-45" style="edgeStyle=orthogonalEdgeStyle;rounded=0;orthogonalLoop=1;jettySize=auto;html=1;exitX=1;exitY=0.5;exitDx=0;exitDy=0;entryX=0;entryY=0.5;entryDx=0;entryDy=0;" edge="1" parent="1" source="COTgaeyNtAmfPq0ewy4g-28" target="COTgaeyNtAmfPq0ewy4g-42">
          <mxGeometry relative="1" as="geometry" />
        </mxCell>
        <mxCell id="COTgaeyNtAmfPq0ewy4g-46" style="edgeStyle=orthogonalEdgeStyle;rounded=0;orthogonalLoop=1;jettySize=auto;html=1;exitX=1;exitY=0.5;exitDx=0;exitDy=0;entryX=0;entryY=0.5;entryDx=0;entryDy=0;" edge="1" parent="1" source="COTgaeyNtAmfPq0ewy4g-28" target="COTgaeyNtAmfPq0ewy4g-43">
          <mxGeometry relative="1" as="geometry" />
        </mxCell>
        <mxCell id="COTgaeyNtAmfPq0ewy4g-28" value="RepositoryImpl" style="rounded=1;whiteSpace=wrap;html=1;hachureGap=4;fontFamily=Architects Daughter;fontSource=https%3A%2F%2Ffonts.googleapis.com%2Fcss%3Ffamily%3DArchitects%2BDaughter;" vertex="1" parent="1">
          <mxGeometry x="886" y="292" width="120" height="60" as="geometry" />
        </mxCell>
        <mxCell id="COTgaeyNtAmfPq0ewy4g-29" value="" style="endArrow=none;html=1;rounded=0;" edge="1" parent="1">
          <mxGeometry width="50" height="50" relative="1" as="geometry">
            <mxPoint x="852" y="600.5" as="sourcePoint" />
            <mxPoint x="850" y="70.5" as="targetPoint" />
          </mxGeometry>
        </mxCell>
        <mxCell id="COTgaeyNtAmfPq0ewy4g-31" value="&lt;font style=&quot;font-size: 14px;&quot;&gt;&lt;b&gt;Data Layer&lt;/b&gt;&lt;/font&gt;" style="text;html=1;align=center;verticalAlign=middle;whiteSpace=wrap;rounded=0;" vertex="1" parent="1">
          <mxGeometry x="886" y="76" width="60" height="30" as="geometry" />
        </mxCell>
        <mxCell id="COTgaeyNtAmfPq0ewy4g-34" value="Stream Data" style="rounded=1;whiteSpace=wrap;html=1;hachureGap=4;fontFamily=Architects Daughter;fontSource=https%3A%2F%2Ffonts.googleapis.com%2Fcss%3Ffamily%3DArchitects%2BDaughter;" vertex="1" parent="1">
          <mxGeometry x="435" y="546" width="120" height="60" as="geometry" />
        </mxCell>
        <mxCell id="COTgaeyNtAmfPq0ewy4g-36" value="LocalDB Service" style="rounded=1;whiteSpace=wrap;html=1;hachureGap=4;fontFamily=Architects Daughter;fontSource=https%3A%2F%2Ffonts.googleapis.com%2Fcss%3Ffamily%3DArchitects%2BDaughter;" vertex="1" parent="1">
          <mxGeometry x="886" y="422" width="120" height="60" as="geometry" />
        </mxCell>
        <mxCell id="COTgaeyNtAmfPq0ewy4g-37" value="NetworkService" style="rounded=1;whiteSpace=wrap;html=1;hachureGap=4;fontFamily=Architects Daughter;fontSource=https%3A%2F%2Ffonts.googleapis.com%2Fcss%3Ffamily%3DArchitects%2BDaughter;" vertex="1" parent="1">
          <mxGeometry x="1036" y="422" width="120" height="60" as="geometry" />
        </mxCell>
        <mxCell id="COTgaeyNtAmfPq0ewy4g-41" value="Entity" style="rounded=1;whiteSpace=wrap;html=1;hachureGap=4;fontFamily=Architects Daughter;fontSource=https%3A%2F%2Ffonts.googleapis.com%2Fcss%3Ffamily%3DArchitects%2BDaughter;" vertex="1" parent="1">
          <mxGeometry x="1163" y="177" width="109" height="43" as="geometry" />
        </mxCell>
        <mxCell id="COTgaeyNtAmfPq0ewy4g-42" value="Entity" style="rounded=1;whiteSpace=wrap;html=1;hachureGap=4;fontFamily=Architects Daughter;fontSource=https%3A%2F%2Ffonts.googleapis.com%2Fcss%3Ffamily%3DArchitects%2BDaughter;" vertex="1" parent="1">
          <mxGeometry x="1166" y="255" width="109" height="43" as="geometry" />
        </mxCell>
        <mxCell id="COTgaeyNtAmfPq0ewy4g-43" value="Entity" style="rounded=1;whiteSpace=wrap;html=1;hachureGap=4;fontFamily=Architects Daughter;fontSource=https%3A%2F%2Ffonts.googleapis.com%2Fcss%3Ffamily%3DArchitects%2BDaughter;" vertex="1" parent="1">
          <mxGeometry x="1166" y="333" width="109" height="43" as="geometry" />
        </mxCell>
        <mxCell id="COTgaeyNtAmfPq0ewy4g-47" value="&lt;font style=&quot;font-size: 14px;&quot;&gt;&lt;b&gt;Presenter Layer&lt;/b&gt;&lt;/font&gt;" style="text;html=1;align=center;verticalAlign=middle;whiteSpace=wrap;rounded=0;" vertex="1" parent="1">
          <mxGeometry x="48" y="76" width="60" height="30" as="geometry" />
        </mxCell>
      </root>
    </mxGraphModel>
  </diagram>
</mxfile>
